<?xml version="1.0" encoding="UTF-8"?><svg width="43px" height="43px" viewBox="0 0 24 24" stroke-width="1.4" fill="none" xmlns="http://www.w3.org/2000/svg" color="#6554af" data-darkreader-inline-color="" style="--darkreader-inline-color: #c8c3bc;"><path d="M12 17a1 1 0 100-2 1 1 0 000 2z" fill="#6554af" stroke="#6554af" stroke-width="1.4" stroke-linecap="round" stroke-linejoin="round" data-darkreader-inline-stroke="" style="--darkreader-inline-stroke: #6554af; --darkreader-inline-fill: #6554af;" data-darkreader-inline-fill=""></path><path d="M21 7.353v9.294a.6.6 0 01-.309.525l-8.4 4.666a.6.6 0 01-.582 0l-8.4-4.666A.6.6 0 013 16.647V7.353a.6.6 0 01.309-.524l8.4-4.667a.6.6 0 01.582 0l8.4 4.667a.6.6 0 01.309.524z" stroke="#6554af" stroke-width="1.4" stroke-linecap="round" stroke-linejoin="round" data-darkreader-inline-stroke="" style="--darkreader-inline-stroke: #6554af;"></path><path d="M20.5 16.722l-8.209-4.56a.6.6 0 00-.582 0L3.5 16.722M3.528 7.294l8.18 4.544a.6.6 0 00.583 0l8.209-4.56M12 3v9M12 19.5V22" stroke="#6554af" stroke-width="1.4" stroke-linecap="round" stroke-linejoin="round" data-darkreader-inline-stroke="" style="--darkreader-inline-stroke: #6554af;"></path></svg>